<svg width="1024" height="1024" viewBox="0 0 1024 1024" fill="none" xmlns="http://www.w3.org/2000/svg">
  <rect width="1024" height="1024" rx="320" fill="#1F312D"/>
  <g transform="translate(128 128) scale(0.75)">
    <rect x="248" y="226" width="420" height="560" rx="54" transform="rotate(-8 248 226)" fill="#DCC9A6" opacity="0.38"/>
    <rect x="308" y="172" width="420" height="560" rx="54" transform="rotate(6 308 172)" fill="#F3F2F0"/>
    <path d="M519.581 377.558C562.172 330.677 640.871 326.604 688.393 367.616C733.98 406.961 740.153 476.183 702.497 523.072C685.661 544.045 661.806 558.349 636.486 564.242C582.505 576.808 538.147 617.377 516.81 668.478L512 680L507.19 668.478C485.853 617.377 441.495 576.808 387.514 564.242C362.194 558.349 338.339 544.045 321.503 523.072C283.847 476.183 290.02 406.961 335.607 367.616C383.129 326.604 461.828 330.677 504.419 377.558L512 385.905L519.581 377.558Z" fill="#C67D4D"/>
    <path d="M623.404 281.543C653.413 281.543 677.74 305.87 677.74 335.879C677.74 365.887 653.413 390.215 623.404 390.215C600.054 390.215 580.145 375.488 572.504 354.816" stroke="#EAE4D8" stroke-width="36" stroke-linecap="round"/>
  </g>
</svg>
